<?xml version="1.0" encoding="utf-8"?>
<!-- Generator: Adobe Illustrator 19.0.0, SVG Export Plug-In . SVG Version: 6.00 Build 0)  -->
<svg version="1.1" id="layer" xmlns="http://www.w3.org/2000/svg" xmlns:xlink="http://www.w3.org/1999/xlink" x="0px" y="0px"
	 viewBox="-153 -46 652 652" style="enable-background:new -153 -46 652 652;" xml:space="preserve">
<style type="text/css">
	.st0{fill:#21205E;}
</style>
<path class="st0" d="M287.7,373.2l0.3-18.9h9.6c3.5,0,5.4,2.2,5.4,4.9c0,2.3-1.5,3.9-3.2,4.3c2,0.3,3.6,2.3,3.6,4.6
	c0,3-1.9,5.1-5.8,5.1H287.7z M299.7,359.7c0-1.3-0.9-2.4-2.6-2.4h-5.7v4.9h5.7C298.6,362.2,299.7,361.1,299.7,359.7 M300,367.7
	c0-1.3-0.9-2.6-2.8-2.6h-5.8v5.3h5.8C298.9,370.3,300,369.3,300,367.7 M311.6,373.2v-7.8l-7.3-11.1h3.8l5.1,8.1l5.1-8.1h3.8
	l-7.3,11.1v7.8H311.6z M341.9,373.2l-4.2-7h-3.4v7H331v-18.9h8.2c3.8,0,6.2,2.4,6.2,5.9c0,3.4-2.2,5.1-4.5,5.5l4.6,7.4H341.9z
	 M342.3,360.3c0-1.8-1.3-3-3.2-3h-4.6v5.9h4.6C341,363.2,342.3,362,342.3,360.3 M349.4,373.2v-18.9h13v3h-9.7v4.9h9.4v3h-9.4v5.3
	h9.6v3L349.4,373.2L349.4,373.2z M366.4,373.2v-18.9h13v3h-9.6v4.9h9.4v3h-9.4v8.2h-3.4V373.2z M382.8,354.3h3.4v18.9h-3.4V354.3z
	 M404.7,373.2l-9.9-13.5v13.5h-3.2v-18.9h3.4l9.6,13.1v-13.1h3.4v18.9H404.7z M413.3,354.3h3.2v18.9h-3.2V354.3z M425.8,373.2v-15.9
	h-5.7v-3h14.7v3h-5.7v15.9H425.8z M438.3,354.3h3.4v18.9h-3.4V354.3z M452.2,373.2l-7.4-18.9h3.8l5.7,15.3l5.7-15.3h3.8l-7.4,18.9
	H452.2z"/>
<polygon class="st0" points="184.9,335.4 200.6,287.9 216.4,335.4 "/>
<polygon class="st0" points="413.6,335.4 429.4,287.9 445.1,335.4 "/>
<polygon class="st0" points="273.8,335.4 283.3,295.5 293.1,335.4 "/>
<polygon class="st0" points="463.7,335.4 463.7,176.1 -131,335.4 107.1,335.4 107.1,322.3 134.2,286 107.1,286 107.1,271.7 
	155.9,271.7 155.9,284.7 128.7,321.1 156.6,321.1 156.6,335.4 166.2,335.4 190.2,271.7 211,271.7 235,335.4 256.4,335.4 
	238.1,271.7 256.5,271.7 266.2,314.2 277.1,271.7 289.7,271.7 300.6,314.2 310.2,271.7 328.7,271.7 310.5,335.4 357.6,335.4 
	357.6,309.8 333.4,271.7 351.9,271.7 365.8,295.2 379.5,271.7 398.1,271.7 374.1,309.8 374.1,335.4 395,335.4 419,271.7 
	439.8,271.7 "/>
<path class="st0" d="M467.2,355.9c0.3,0,0.7-0.3,0.7-0.7c0-0.4-0.3-0.7-0.7-0.7h-0.8v2.3h0.3v-0.9H467.2l0.7,0.9l0,0h0.3
	L467.2,355.9z M467.6,355.3c0,0.3-0.3,0.5-0.5,0.5h-0.7v-0.9h0.7C467.3,354.7,467.6,355,467.6,355.3"/>
<path class="st0" d="M466.9,357.7c-1.1,0-2-0.9-2-2c0-1.1,0.9-2,2-2c1.1,0,2,0.9,2,2C469,356.8,468,357.7,466.9,357.7 M466.9,353.9
	c-0.9,0-1.8,0.8-1.8,1.8c0,0.9,0.8,1.8,1.8,1.8c0.9,0,1.8-0.8,1.8-1.8C468.7,354.7,467.9,353.9,466.9,353.9"/>
</svg>
